<svg width="640" height="800" viewBox="0 0 640 800" fill="none" xmlns="http://www.w3.org/2000/svg">
  <rect width="640" height="800" rx="32" fill="#111214" />
  <g filter="url(#shadow)">
    <path
      d="M214 176c-18 24-48 32-78 36l14 92c7 48 22 94 28 142 4 38 3 80 30 107 31 31 82 39 122 39s91-8 122-39c27-27 26-69 30-107 6-48 21-94 28-142l14-92c-30-4-60-12-78-36-18-24-24-60-58-68-40-10-84-10-124 0-34 8-40 44-58 68z"
      fill="url(#tee)"
    />
  </g>
  <defs>
    <linearGradient id="tee" x1="320" y1="160" x2="320" y2="640" gradientUnits="userSpaceOnUse">
      <stop stop-color="#3E4A2A" />
      <stop offset="1" stop-color="#2A331E" />
    </linearGradient>
    <filter id="shadow" x="80" y="80" width="480" height="640" filterUnits="userSpaceOnUse" color-interpolation-filters="sRGB">
      <feFlood flood-opacity="0" result="BackgroundImageFix" />
      <feColorMatrix in="SourceAlpha" type="matrix" values="0 0 0 0 0 0 0 0 0 0 0 0 0 0 0 0 0 0 127 0" result="hardAlpha" />
      <feOffset dy="12" />
      <feGaussianBlur stdDeviation="18" />
      <feColorMatrix type="matrix" values="0 0 0 0 0.05 0 0 0 0 0.08 0 0 0 0 0.12 0 0 0 0.3 0" />
      <feBlend mode="normal" in2="BackgroundImageFix" result="effect1_dropShadow" />
      <feBlend mode="normal" in="SourceGraphic" in2="effect1_dropShadow" result="shape" />
    </filter>
  </defs>
</svg>

